<svg width="700" height="700" viewBox="0 0 700 700" fill="none" xmlns="http://www.w3.org/2000/svg">
<g clip-path="url(#clip0_1207_41)">
<path d="M349.742 209.122C344.896 209.122 340.104 209.369 335.382 209.853C330.66 210.336 326.004 211.053 321.426 211.994C316.849 212.935 312.353 214.1 307.947 215.475L295.016 220.223L282.703 226.168L271.085 233.238L260.229 241.358L250.212 250.457L241.103 260.466L232.975 271.31L225.896 282.917L219.947 295.216C218.159 299.422 216.569 303.734 215.192 308.137C213.815 312.539 212.65 317.033 211.708 321.605C210.765 326.177 210.048 330.828 209.563 335.547C209.077 340.265 208.834 345.052 208.834 349.892C208.834 354.732 209.081 359.52 209.563 364.238C210.042 368.919 210.758 373.573 211.708 378.181C212.65 382.771 213.815 387.247 215.192 391.65C216.569 396.052 218.158 400.363 219.947 404.571L225.896 416.869L232.975 428.475L241.103 439.32L250.212 449.329L260.229 458.428L271.085 466.548L282.703 473.618L295.016 479.563L307.947 484.311L321.426 487.792C326.039 488.741 330.697 489.456 335.382 489.935C340.153 490.422 344.946 490.665 349.742 490.664C354.587 490.664 359.38 490.417 364.1 489.935C368.785 489.456 373.443 488.741 378.055 487.792L391.536 484.311L404.468 479.563L416.778 473.618L428.399 466.548L439.255 458.428L449.274 449.329L458.382 439.32L466.511 428.475L473.589 416.869L479.538 404.571L484.293 391.65C485.67 387.247 486.835 382.753 487.778 378.181L489.922 364.236C490.406 359.518 490.653 354.731 490.653 349.89C490.653 345.05 490.406 340.263 489.922 335.545C489.443 330.864 488.728 326.211 487.778 321.603C486.835 317.014 485.67 312.539 484.293 308.135L479.538 295.214L473.589 282.916L466.511 271.308L458.382 260.464L449.274 250.456L439.255 241.356L428.399 233.236L416.778 226.167L404.468 220.222L391.536 215.473L378.055 211.992L364.1 209.851C359.329 209.364 354.537 209.12 349.742 209.12V209.122ZM349.742 257.711C352.946 257.711 356.107 257.869 359.221 258.184L368.4 259.573L377.266 261.832L385.757 264.916L393.829 268.782L401.419 273.38L408.516 278.67L415.057 284.605L420.997 291.14L426.293 298.229L430.896 305.83L434.762 313.897C435.924 316.657 436.954 319.487 437.851 322.38C438.748 325.273 439.502 328.23 440.111 331.241C440.72 334.253 441.17 337.317 441.5 340.429L441.973 349.901C441.973 353.101 441.814 356.261 441.5 359.375C441.186 362.489 440.723 365.553 440.111 368.563C439.498 371.572 438.743 374.529 437.851 377.424L434.762 385.907L430.896 393.974L426.293 401.573L420.997 408.664L415.057 415.199L408.516 421.133L401.419 426.424L393.829 431.022L385.757 434.888L377.266 437.972L368.4 440.231L359.221 441.619C356.07 441.934 352.906 442.092 349.74 442.092C346.573 442.092 343.408 441.934 340.257 441.619L331.078 440.231C328.065 439.62 325.107 438.865 322.21 437.972L313.72 434.888L305.647 431.022L298.057 426.424L290.961 421.133L284.419 415.199L278.479 408.664L273.184 401.573L268.58 393.974L264.714 385.907L261.625 377.424L259.366 368.563L257.977 359.375C257.661 356.227 257.503 353.065 257.504 349.901C257.503 346.738 257.661 343.577 257.977 340.429C258.289 337.317 258.753 334.251 259.366 331.241C259.972 328.252 260.727 325.296 261.627 322.382L264.716 313.898L268.582 305.831L273.186 298.231L278.481 291.141L284.421 284.607L290.963 278.672L298.059 273.382L305.649 268.784L313.721 264.918C316.5 263.751 319.334 262.722 322.214 261.834L331.082 259.575C334.095 258.964 337.163 258.498 340.261 258.185C343.412 257.87 346.577 257.712 349.744 257.712L349.742 257.711Z" fill="url(#paint0_radial_1207_41)"/>
<path d="M496.366 169.077C495.247 169.077 494.129 169.134 493.016 169.246C491.903 169.359 490.796 169.527 489.699 169.751C488.603 169.975 487.518 170.253 486.449 170.586C485.381 170.919 484.329 171.305 483.299 171.744C482.268 172.183 481.26 172.674 480.278 173.214C479.297 173.754 478.342 174.342 477.419 174.978C476.495 175.614 475.604 176.296 474.748 177.022C473.893 177.747 473.074 178.515 472.294 179.322C471.515 180.13 470.776 180.976 470.081 181.859C469.386 182.741 468.735 183.658 468.13 184.605C467.526 185.552 466.969 186.529 466.462 187.532C465.954 188.536 465.497 189.564 465.091 190.614C464.685 191.663 464.332 192.733 464.033 193.818C463.734 194.903 463.489 196.002 463.299 197.112C463.109 198.221 462.974 199.339 462.895 200.462C462.839 201.257 462.81 202.055 462.81 202.852C462.81 203.979 462.866 205.104 462.978 206.225C463.089 207.346 463.257 208.46 463.479 209.563C463.701 210.667 463.978 211.758 464.309 212.834C464.64 213.91 465.024 214.969 465.46 216.006C465.895 217.044 466.383 218.059 466.919 219.048C467.456 220.036 468.041 220.997 468.672 221.927C469.304 222.856 469.982 223.752 470.702 224.613C471.423 225.475 472.186 226.3 472.988 227.085C473.791 227.869 474.632 228.612 475.509 229.312C476.385 230.012 477.296 230.668 478.238 231.277C479.18 231.886 480.151 232.446 481.149 232.957C482.145 233.468 483.167 233.929 484.209 234.338C485.252 234.746 486.314 235.101 487.392 235.402C488.47 235.703 489.562 235.949 490.665 236.14C491.767 236.332 492.878 236.468 493.994 236.548C494.784 236.604 495.576 236.632 496.368 236.632C497.487 236.633 498.605 236.577 499.718 236.465C500.832 236.352 501.939 236.184 503.035 235.96C504.132 235.736 505.216 235.458 506.285 235.125C507.354 234.792 508.405 234.406 509.436 233.967C510.466 233.528 511.474 233.038 512.456 232.498C513.438 231.958 514.392 231.369 515.316 230.733C516.239 230.098 517.13 229.416 517.986 228.691C518.842 227.965 519.661 227.197 520.44 226.389C521.219 225.581 521.958 224.735 522.653 223.852C523.349 222.97 524 222.054 524.604 221.106C525.208 220.158 525.765 219.181 526.272 218.177C526.78 217.174 527.238 216.145 527.644 215.095C528.049 214.046 528.402 212.977 528.701 211.892C529 210.807 529.245 209.707 529.435 208.598C529.625 207.488 529.76 206.37 529.84 205.247C529.896 204.452 529.924 203.655 529.924 202.857C529.924 201.731 529.868 200.606 529.757 199.486C529.645 198.365 529.478 197.251 529.255 196.148C529.033 195.044 528.756 193.953 528.426 192.877C528.095 191.801 527.711 190.742 527.275 189.705C526.839 188.667 526.352 187.652 525.815 186.663C525.279 185.675 524.694 184.714 524.062 183.784C523.43 182.855 522.752 181.958 522.03 181.096C521.31 180.234 520.548 179.41 519.746 178.625C518.943 177.84 518.102 177.097 517.225 176.397C516.349 175.697 515.438 175.042 514.497 174.434C513.555 173.826 512.583 173.265 511.586 172.754C510.589 172.243 509.567 171.782 508.525 171.373C507.482 170.965 506.42 170.61 505.342 170.309C504.264 170.008 503.172 169.761 502.07 169.569C500.967 169.378 499.856 169.243 498.74 169.163C497.95 169.107 497.158 169.079 496.366 169.079V169.077Z" fill="url(#paint1_radial_1207_41)"/>
<path d="M323.022 74.4981C307.696 74.4734 294.02 74.537 281.734 74.71L248.795 75.5926C239.037 76.0162 230.416 76.5687 222.678 77.2836C218.808 77.6401 215.158 78.0391 211.698 78.4786C208.406 78.8936 205.122 79.3768 201.85 79.9278C198.735 80.4574 195.778 81.0293 192.943 81.6506C190.108 82.272 187.4 82.9428 184.788 83.663C182.234 84.3672 179.7 85.1419 177.189 85.986C174.728 86.8156 172.327 87.6947 169.957 88.6338C165.215 90.5119 160.591 92.6195 155.828 94.9813C152.164 96.7995 148.778 98.6406 145.562 100.589C142.346 102.538 139.299 104.596 136.316 106.838C133.244 109.158 130.282 111.621 127.442 114.22C124.473 116.924 121.441 119.899 118.29 123.223C114.33 127.376 110.89 131.249 107.836 135.049C106.309 136.949 104.88 138.827 103.533 140.716C102.201 142.577 100.927 144.48 99.7146 146.421C98.5143 148.345 97.3775 150.304 96.2901 152.32C95.1858 154.371 94.1422 156.453 93.1605 158.565C91.1517 162.879 89.2771 167.525 87.406 172.711C86.0178 176.545 84.7748 180.43 83.6796 184.358C82.5623 188.372 81.5685 192.572 80.6823 197.113C79.7962 201.655 79.0231 206.54 78.3435 211.941C77.6111 217.862 77.0261 223.8 76.5889 229.75C76.0946 236.292 75.6851 243.49 75.3497 251.502L74.5554 278.143L74.1282 310.617L74.0046 349.869L74.3665 406.95L75.4962 450.197L76.3665 467.09L77.4538 481.088C77.8024 484.861 78.2385 488.626 78.7618 492.378C79.2384 495.711 79.7503 498.627 80.3011 501.151C81.4186 506.283 82.74 511.369 84.2621 516.395C85.7196 521.208 87.3864 525.955 89.2576 530.623C91.097 535.195 93.1093 539.604 95.2981 543.848C97.4869 548.091 99.8523 552.169 102.394 556.086C104.936 560.003 107.654 563.759 110.556 567.355C113.455 570.951 116.538 574.394 119.794 577.67C123.054 580.954 126.493 584.078 130.116 587.047C133.783 590.05 137.595 592.872 141.537 595.502C145.196 597.949 148.817 600.189 152.464 602.245C156.111 604.302 159.789 606.168 163.57 607.864C167.351 609.56 171.228 611.087 175.277 612.461C179.326 613.834 183.545 615.055 188.004 616.139C192.463 617.223 197.183 618.174 202.179 619.004C207.174 619.834 212.514 620.545 218.219 621.158C223.924 621.77 230.01 622.277 236.55 622.7C243.09 623.124 250.08 623.463 257.591 623.735C269.194 624.155 286.758 624.4 307.011 624.494L372.579 624.361L434.668 623.491L458.276 622.828L473.656 622.037C476.957 621.768 480.187 621.451 483.304 621.078C486.422 620.706 489.497 620.28 492.49 619.797C495.484 619.313 498.411 618.773 501.286 618.173C504.129 617.581 506.956 616.92 509.766 616.19C512.548 615.484 515.291 614.681 518.006 613.829C520.721 612.976 523.408 612.055 526.078 611.066C528.764 610.071 531.426 609.011 534.06 607.887C536.714 606.757 539.363 605.55 542.021 604.268C546.104 602.302 549.391 600.662 552.277 599.061C554.992 597.572 557.606 595.906 560.104 594.076C562.568 592.261 565.018 590.196 567.843 587.594C570.667 584.992 573.867 581.857 577.83 577.893C581.313 574.412 584.25 571.386 586.783 568.634C589.316 565.883 591.45 563.406 593.321 561.019C595.105 558.755 596.767 556.397 598.299 553.955C599.794 551.572 601.171 549.097 602.575 546.352C604.686 542.222 606.564 538.397 608.246 534.706C609.88 531.149 611.372 527.528 612.719 523.853C614.046 520.207 615.196 516.499 616.163 512.742C617.159 508.876 618.016 504.795 618.758 500.318C619.499 495.842 620.126 490.97 620.669 485.529C621.213 480.089 621.676 474.077 622.082 467.321L623.158 444.644L624.083 416.442L624.744 385.021L624.998 352.168L624.408 287.641L623.619 258.74L622.542 233.925L621.201 214.578C620.714 209.194 620.188 204.954 619.63 202.088C619.013 198.92 618.323 195.767 617.561 192.632C616.82 189.58 616.004 186.547 615.116 183.536C614.25 180.601 613.31 177.69 612.295 174.803C611.293 171.952 610.23 169.162 609.118 166.431C608.006 163.7 606.802 161.033 605.549 158.422C604.296 155.812 602.982 153.264 601.604 150.775C600.225 148.287 598.788 145.859 597.286 143.492C595.784 141.125 594.22 138.818 592.591 136.573C590.971 134.335 589.281 132.148 587.525 130.015C585.777 127.894 583.962 125.829 582.084 123.823C580.209 121.819 578.27 119.875 576.271 117.994C574.271 116.112 572.211 114.291 570.086 112.529C567.953 110.762 565.766 109.061 563.527 107.429C561.264 105.781 558.952 104.203 556.593 102.695C554.202 101.167 551.766 99.709 549.289 98.3246C546.768 96.9171 544.207 95.582 541.61 94.3212C537.3 92.2259 533.314 90.3672 529.4 88.7185C525.554 87.0823 521.632 85.6291 517.648 84.3638C513.641 83.1017 509.47 82.0196 504.88 81.0858C500.291 80.152 495.286 79.3736 489.622 78.7116C483.957 78.0497 477.633 77.5149 470.399 77.07C463.165 76.6252 455.029 76.2757 445.739 75.9932L414.167 75.2872L374.209 74.8159L323.039 74.5016L323.022 74.4981ZM349.596 123.044L423.387 123.464L451.224 124.001C458.89 124.216 464.74 124.469 468.17 124.76C472.635 125.136 476.89 125.607 480.958 126.172C484.863 126.711 488.749 127.382 492.609 128.183C496.315 128.959 499.851 129.842 503.235 130.838C506.619 131.833 509.851 132.949 512.952 134.183C516.054 135.417 519.019 136.774 521.874 138.26C524.705 139.735 527.457 141.359 530.117 143.123C532.765 144.88 535.317 146.772 537.796 148.811C540.274 150.85 542.676 153.035 545.022 155.372C547.499 157.838 549.783 160.35 551.889 162.941C553.987 165.516 555.928 168.215 557.702 171.024C559.496 173.872 561.112 176.829 562.542 179.876C564.003 182.983 565.317 186.266 566.496 189.756C567.675 193.246 568.725 196.955 569.655 200.917C570.63 205.119 571.446 209.355 572.102 213.618C572.808 218.137 573.412 222.956 573.924 228.115C574.436 233.275 574.859 238.777 575.209 244.664C575.488 249.386 575.731 255.617 575.938 262.976L576.455 288.068L576.85 349.532L576.4 410.938L575.86 435.958L575.117 454.155C574.602 462.675 574.058 469.839 573.408 476.073C573.082 479.191 572.729 482.075 572.337 484.781C571.97 487.337 571.535 489.884 571.032 492.417C570.573 494.728 570.041 497.024 569.435 499.301C568.855 501.474 568.202 503.627 567.477 505.757C566.747 507.896 565.953 510.013 565.096 512.104C564.19 514.313 563.233 516.5 562.228 518.665C561.333 520.598 560.392 522.478 559.396 524.309C558.412 526.121 557.366 527.899 556.261 529.64C555.167 531.364 554.019 533.039 552.819 534.662C551.625 536.279 550.374 537.852 549.066 539.378C547.763 540.898 546.405 542.37 544.994 543.791C543.582 545.212 542.117 546.584 540.599 547.908C539.081 549.231 537.506 550.502 535.877 551.727C534.248 552.953 532.562 554.128 530.82 555.254C529.077 556.381 527.28 557.461 525.425 558.492C523.57 559.523 521.656 560.508 519.688 561.445C517.686 562.396 515.656 563.287 513.6 564.117C511.475 564.974 509.327 565.772 507.157 566.509C502.744 568.013 498.089 569.333 493.189 570.472C488.082 571.651 482.928 572.616 477.74 573.363C475.746 573.655 471.161 573.928 464.595 574.182L439.572 574.878L368.629 575.799L294.374 575.916L265.213 575.605L246.278 575.016L232.316 574.034C227.98 573.669 223.949 573.263 220.171 572.802C216.394 572.341 212.876 571.828 209.566 571.249C206.429 570.706 203.312 570.059 200.219 569.307C197.399 568.621 194.608 567.821 191.852 566.91C189.196 566.027 186.655 565.056 184.184 563.988C181.713 562.921 179.312 561.75 176.935 560.472C174.557 559.194 172.204 557.807 169.824 556.294C168.029 555.154 166.294 553.999 164.624 552.776C162.954 551.553 161.341 550.333 159.788 549.055C158.234 547.777 156.743 546.46 155.304 545.105C153.875 543.755 152.495 542.355 151.166 540.907C149.842 539.463 148.577 537.977 147.362 536.437C146.143 534.892 144.981 533.302 143.88 531.671C142.761 530.016 141.703 528.32 140.708 526.588C139.701 524.84 138.745 523.033 137.836 521.169C136.911 519.269 136.049 517.34 135.25 515.384C134.438 513.393 133.668 511.338 132.944 509.216C131.497 504.971 130.226 500.452 129.121 495.633C128.016 490.814 127.073 485.695 126.275 480.241C125.478 474.786 124.835 469.004 124.323 462.857C123.945 458.33 123.645 451.278 123.416 442.381L122.936 410.74L123.112 330.08L124.501 253.005L125.561 225.849L126.161 216.873C126.369 214.476 126.584 212.7 126.805 211.634C127.532 208.126 128.265 204.863 129.022 201.807C129.729 198.924 130.516 196.062 131.382 193.223C132.205 190.543 133.071 188.033 133.998 185.656C134.892 183.352 135.888 181.09 136.983 178.875C138.053 176.722 139.202 174.66 140.45 172.653C141.698 170.646 143.045 168.699 144.513 166.763C145.982 164.826 147.564 162.915 149.285 160.976C151.006 159.038 152.864 157.081 154.88 155.063C157.23 152.7 159.676 150.436 162.213 148.276C164.608 146.238 167.106 144.324 169.697 142.541C172.244 140.776 174.857 139.205 177.577 137.761C180.297 136.317 183.125 135.012 186.099 133.838C189.074 132.665 192.198 131.614 195.508 130.661C198.985 129.686 202.501 128.854 206.046 128.167C209.774 127.436 213.733 126.799 217.961 126.243C222.189 125.687 226.686 125.207 231.495 124.79C234.849 124.501 240.628 124.243 248.238 124.026L275.933 123.479L349.609 123.028L349.596 123.044Z" fill="url(#paint2_radial_1207_41)"/>
</g>
<defs>
<radialGradient id="paint0_radial_1207_41" cx="0" cy="0" r="1" gradientUnits="userSpaceOnUse" gradientTransform="translate(161.786 664.587) rotate(-9.53101) scale(1164.52 706.854)">
<stop stop-color="#FED576"/>
<stop offset="0.263" stop-color="#F47133"/>
<stop offset="0.609" stop-color="#BC3081"/>
<stop offset="1" stop-color="#4C63D2"/>
</radialGradient>
<radialGradient id="paint1_radial_1207_41" cx="0" cy="0" r="1" gradientUnits="userSpaceOnUse" gradientTransform="translate(161.787 664.587) rotate(-9.53102) scale(1164.51 706.854)">
<stop stop-color="#FED576"/>
<stop offset="0.263" stop-color="#F47133"/>
<stop offset="0.609" stop-color="#BC3081"/>
<stop offset="1" stop-color="#4C63D2"/>
</radialGradient>
<radialGradient id="paint2_radial_1207_41" cx="0" cy="0" r="1" gradientUnits="userSpaceOnUse" gradientTransform="translate(161.787 664.587) rotate(-9.53101) scale(1164.52 706.854)">
<stop stop-color="#FED576"/>
<stop offset="0.263" stop-color="#F47133"/>
<stop offset="0.609" stop-color="#BC3081"/>
<stop offset="1" stop-color="#4C63D2"/>
</radialGradient>
<clipPath id="clip0_1207_41">
<rect width="551" height="551" fill="white" transform="translate(74 74)"/>
</clipPath>
</defs>
</svg>
